<svg xmlns="http://www.w3.org/2000/svg" width="100%" height="100%" viewBox="350 290 330 330"><path fill-rule="evenodd" d="M396.455 343.455 394 345.909v174.182l2.455 2.454c1.921 1.922 3.496 2.456 7.25 2.461 7.098.009 22.262 2.506 35.306 5.816 33.163 8.413 57.366 24.838 69.867 47.414 1.442 2.604 2.933 4.742 3.313 4.75s2.17-2.798 3.976-6.236c4.569-8.695 19.849-23.779 30.443-30.053 11.67-6.911 25.104-12.434 38.348-15.767 13.01-3.274 29.191-5.915 36.292-5.924 3.411-.004 5.314-.57 6.75-2.006 1.966-1.966 2.003-3.436 2.151-86.75.083-46.613.06-86.1-.05-87.75-.268-4.009-4.255-7.5-8.565-7.5-6.936 0-28.436 3.293-39.036 5.979-12.366 3.133-25.982 8.717-36.756 15.075-10.247 6.046-22.506 18.574-26.833 27.42-3.394 6.938-3.413 7.057-3.747 23.25L514.828 429H509v-14.818c0-17.889-1.055-22.099-8.026-32.025-8.551-12.176-26.46-24.284-46.514-31.448-9.405-3.359-27.721-7.355-39.671-8.654-13.999-1.521-15.531-1.404-18.334 1.4M402 432.834v83.128l2.25.457c1.238.252 5.377.732 9.199 1.068 26.204 2.299 57.733 13.278 75.013 26.119 6.984 5.189 15.213 12.94 20.197 19.023l3.486 4.254 6.067-7.05c8.11-9.422 20.167-18.801 31.985-24.879 17.362-8.93 42.213-15.941 62.803-17.72l8.5-.734.256-83.25.255-83.25-5.255.02c-13.122.049-37.943 5.754-52.151 11.986-18.406 8.073-31.302 18.385-37.608 30.072l-3.465 6.422-.369 16.242c-.342 15.085-.236 16.291 1.484 16.93 1.019.378 3.565 1.808 5.656 3.176l3.804 2.488 6.429-6.372 6.429-6.372-2.153-2.292c-1.184-1.261-1.964-2.445-1.733-2.633.888-.718 15.077-2.844 15.586-2.335.75.75-2.859 15.668-3.791 15.668-.418 0-1.43-.956-2.249-2.125-1.466-2.094-1.589-2.034-8.457 4.115l-6.97 6.24 2.295 4.635c1.262 2.549 2.603 6.097 2.98 7.885.68 3.223.734 3.25 6.606 3.25 5.912 0 5.921-.004 5.921-3 0-1.65.377-3 .837-3 1.723 0 12.298 8.261 11.497 8.982-.458.412-3.309 2.394-6.334 4.403l-5.5 3.652-.313-3.018c-.309-2.97-.405-3.019-6-3.001l-5.687.018-2.38 7.519c-1.309 4.135-2.209 7.65-2 7.811s3.556 2.794 7.437 5.852c6.621 5.216 7.208 5.476 9.5 4.206 1.344-.744 4.633-1.369 7.311-1.389 4.342-.031 5.286.384 8.75 3.847 2.135 2.136 3.882 4.836 3.882 6 0 1.165.112 2.141.25 2.169s5.563.85 12.057 1.828c11.555 1.74 11.828 1.737 12.828-.132 1.539-2.874 6.621-4.677 10.249-3.637 4.174 1.197 6.573 3.853 7.25 8.025 1.568 9.66-14.434 14.155-17.881 5.023-1.06-2.811-1.318-2.896-12.426-4.134l-11.342-1.265-4.47 4.121c-3.73 3.437-5.153 4.12-8.592 4.12-6.274 0-10.493-2.48-12.988-7.634-1.936-3.999-2.083-5.827-.822-10.21.217-.753-2.984-3.985-7.289-7.357l-7.676-6.014-3.352 2.557c-4.256 3.246-11.624 6.608-14.546 6.636-2.249.022-2.25.033-2.25 17.901v17.878l3.034 1.257c3.844 1.592 6.737 5.246 7.539 9.522 2.442 13.021-13.814 21.128-23.046 11.492-2.255-2.354-2.956-4.159-3.32-8.551-.432-5.209-.694-5.686-4.085-7.427-1.992-1.023-8.315-4.801-14.05-8.396l-10.429-6.536-2.571 1.799c-7.542 5.275-17.909 1.576-20.78-7.417-.927-2.902-1.321-3.069-12.154-5.144l-11.196-2.144-2.894 2.894c-8.507 8.507-21.223-3.803-13.459-13.029 2.057-2.445 3.372-3.077 6.399-3.077 3.637 0 4.118-.412 10.549-9.05 6.145-8.252 6.638-9.27 5.601-11.547-1.422-3.12-1.476-9.903-.1-12.475.87-1.625.122-3.074-4.612-8.934-5.361-6.635-5.865-6.994-9.816-6.994-5.265 0-8.263-2.085-9.514-6.615-1.2-4.347-.171-7.394 3.464-10.254 3.537-2.782 7.663-2.703 11.05.21l2.721 2.341 5.085-1.891c19.526-7.26 18.716-6.841 18.39-9.527-.265-2.181-1.85-3.181-11.806-7.451-11.003-4.719-11.615-4.865-14.154-3.373-4.358 2.561-9.546 2.014-12.923-1.363-6.645-6.645-.302-17.637 8.999-15.594 3.523.774 7.078 4.786 7.078 7.988 0 1.856 1.875 3.014 11.969 7.393 10.399 4.511 12.235 5.025 14 3.923 1.117-.697 1.998-1.722 1.958-2.278-.041-.555-2.854-6.634-6.252-13.509-5.398-10.923-6.514-12.539-8.843-12.808-3.342-.387-7.545-4.201-8.405-7.626-2.301-9.169 10.659-15.358 16.53-7.894 2.364 3.006 2.706 8.918.686 11.855-1.208 1.758-.671 3.415 4.936 15.216 4.852 10.213 6.647 13.107 7.844 12.648.854-.327 2.992-.093 4.753.52 2.947 1.028 3.458.866 6.449-2.032 2.925-2.835 3.23-3.671 3.062-8.405-.204-5.728 1.633-8.87 6.207-10.619 3.109-1.188 8.61.598 10.603 3.444 1.543 2.204 1.984 7.283.882 10.156-.886 2.308-5.688 4.545-9.757 4.545-2.786 0-4.076.727-6.493 3.659-2.912 3.533-2.962 3.763-1.465 6.659 1.088 2.104 1.368 4.386.936 7.643l-.616 4.643 5.729 4.948c10.768 9.298 11.454 9.795 12.127 8.776.363-.551 2.834-2.264 5.492-3.808l4.832-2.806-.332-16.607c-.325-16.278-.391-16.716-3.332-22.094-7.801-14.267-27.301-27.637-51-34.967-11.002-3.403-25.172-6.119-35.25-6.755l-9.25-.585zm202.365-73.665c-3.653 1.769-5.476 6.811-4.098 11.331.478 1.569-1.815 4.544-10.65 13.814-10.212 10.714-11.51 11.751-13.939 11.141-2.521-.632-2.678-1.014-2.678-6.496 0-5 .291-5.917 2.057-6.477 2.807-.891 5.39-6.563 4.537-9.963-2.763-11.009-18.594-9.52-18.594 1.749 0 3.271.635 4.594 3.5 7.297 3.013 2.841 3.5 3.94 3.5 7.893 0 3.837-.37 4.734-2.25 5.461-2.504.967-5.91 4.436-7.625 7.765-4.082 7.926 3.219 18.323 12.859 18.312 4.294-.004 9.657-3.115 11.197-6.494 1.286-2.823 2.457-2.972 11.294-1.433 5.393.939 6.269 1.414 7.212 3.912 1.375 3.643 6.484 6.36 10.359 5.509 1.595-.35 4.082-2.042 5.526-3.758 3.131-3.721 2.853-8.586-.707-12.375-3.155-3.359-10.008-3.305-13.417.104-2.418 2.418-2.6 2.442-10.265 1.324-7.709-1.123-7.817-1.18-8.903-4.648l-1.099-3.511 10.932-11.513c10.866-11.443 10.958-11.511 15.195-11.25 7.99.491 12.877-6.738 9.27-13.712-2.548-4.927-7.919-6.545-13.213-3.982m-235.956 10.78c-4.452 1.85-4.457 1.959-4.176 93.696.258 84.091.334 87.219 2.172 89.25 1.73 1.911 2.981 2.105 13.605 2.105 25.309 0 47.247 2.961 67.49 9.109 14.396 4.372 34.211 14.359 45.25 22.806 5.087 3.893 9.25 6.892 9.25 6.664 0-1.961-5.016-11.205-8.988-16.563-12.914-17.42-35.717-29.842-66.173-36.049-5.635-1.148-16.934-2.365-25.919-2.791-13.148-.624-16.233-1.06-17.674-2.501-1.625-1.624-1.781-7.461-2.246-83.96l-.5-82.215-5-.21c-2.75-.115-5.941.181-7.091.659m275.258-.282c-.367.366-.674 37.379-.682 82.25s-.355 82.117-.771 82.77c-1.397 2.199-6.294 3.313-14.555 3.313-20.923 0-47.584 5.807-64.677 14.087-6.447 3.123-18.563 11.1-23.063 15.184-6.987 6.341-15.18 18.434-17.432 25.729-.679 2.202-.218 1.991 3.869-1.769 2.553-2.348 8.129-6.55 12.392-9.337C565.917 564.134 602.222 555 645.643 555c10.485 0 11.349-.15 12.8-2.223 1.381-1.97 1.557-12.224 1.557-90.545v-88.323l-2.455-2.454c-1.997-1.998-3.455-2.455-7.833-2.455-2.958 0-5.679.3-6.045.667m-77.931 31.583c-4.293 3.26-4.076 9.998.423 13.149 3.434 2.405 6.653 1.943 10.035-1.439 2.544-2.544 2.939-3.564 2.42-6.25-.341-1.766-1.569-3.998-2.728-4.96-2.454-2.038-7.78-2.3-10.15-.5m-111.281 10.205c-3.341 3.34-3.141 7.013.585 10.739 2.556 2.555 3.551 2.938 6.247 2.399 5.138-1.028 7.212-4.017 6.828-9.843-.367-5.581-9.235-7.721-13.66-3.295M438 427.631c-5.225 1.942-10.276 3.769-11.225 4.06-.978.3-1.994 1.962-2.346 3.836-.548 2.92-.003 4.078 4.661 9.898 4.306 5.374 5.664 6.47 7.346 5.932 3.616-1.154 10.558-.591 13.082 1.063 1.342.879 3.163 2.996 4.046 4.703l1.605 3.104 10.464-.713c15.178-1.034 15.525-1.18 16.868-7.069.62-2.72 1.661-5.928 2.313-7.129.652-1.202 1.186-2.58 1.186-3.064 0-.483-3.801-4.098-8.447-8.034-8.318-7.046-8.489-7.132-11.25-5.693-4.903 2.558-12.842 1.149-16.175-2.87-1.716-2.068-.881-2.204-12.128 1.976m167.357 7.361c-2.921 1.178-5.357 4.888-5.357 8.157 0 2.359-.891 3.134-6.982 6.073s-7.271 3.207-9.25 2.108c-6.492-3.604-14.041.318-14.041 7.297 0 5.56 1.667 8.111 6.183 9.464 3.223.966 4.427.887 7.141-.467 3.219-1.606 3.353-1.577 9.6 2.077 5.28 3.089 6.438 4.256 6.954 7.008.911 4.855 5.806 8.648 10.233 7.93 6.921-1.123 10.703-7.758 7.715-13.536-2.673-5.17-7.864-6.545-13.569-3.594-2.804 1.449-3.159 1.36-9.105-2.276-8.785-5.373-8.799-7.241-.09-11.627 6.148-3.096 7.001-3.285 9.242-2.044 5.287 2.927 10.9 1.406 13.522-3.665 2.083-4.027 1.097-8.172-2.703-11.37-3.096-2.605-5.771-3.038-9.493-1.535m-109.715 14.155c-.353 3.38-.642 8.985-.642 12.454v6.308l3.75.601c2.063.331 5.325 1.352 7.25 2.27s3.837 1.83 4.25 2.027c.901.432 1.017-21.947.127-24.268-.84-2.189-7.61-5.539-11.195-5.539-2.812 0-2.916.18-3.54 6.147m22.185-3.971c-2.021 1.171-3.927 3.073-4.237 4.227-.662 2.469-.795 23.597-.147 23.597.243 0 1.931-.857 3.75-1.905s5.22-2.212 7.557-2.588l4.25-.683V443l-3.75.023c-2.062.013-5.403.981-7.423 2.153M491 460.409v13.409l7.137.067c3.925.037 8.088.353 9.25.703 1.382.417 1.767.299 1.113-.339-1.568-1.53-7.466-3.249-11.149-3.249H494v-12c0-10-.25-12-1.5-12-1.259 0-1.5 2.157-1.5 13.409m39.483-1.664.017 11.744-5.058.623c-2.782.342-6.382 1.374-8 2.292-2.6 1.475-2.651 1.586-.442.955 1.375-.393 5.538-.699 9.25-.681l6.75.034v-13.356c0-10.114-.308-13.356-1.267-13.356-.952 0-1.263 2.922-1.25 11.745m-94.41-.11C431.766 464.11 435.265 472 442 472c1.948 0 3.998-.907 5.545-2.455 5.123-5.122 1.438-13.545-5.927-13.545-2.561 0-4.017.692-5.545 2.635m31.935 5.819c-11.275.944-12.526 1.241-12.852 3.046-.198 1.1-1.395 3.375-2.661 5.057-2.294 3.045-2.295 3.074-.513 8 4.04 11.168 5.541 13.765 8.078 13.98 1.342.113 3.79.489 5.44.833 2.729.571 3.842-.167 12.304-8.156l9.304-8.783-2.544-5.465c-1.4-3.006-2.549-6.227-2.554-7.157-.006-.93-.347-1.851-.76-2.046s-6.371.116-13.242.691m-39.327 20.597c-6.083 8.12-6.485 8.967-5.378 11.33 1.25 2.668 2.364 3.044 16.86 5.708l6.663 1.225 2.555-2.907c1.406-1.599 2.572-3.582 2.593-4.407.038-1.559-5.829-17.025-6.877-18.128-.328-.346-2.677-.846-5.22-1.113l-4.623-.485zm52.425 6.343c-5.928 5.952-9.082 9.836-8.609 10.601.41.664 1.029 3.483 1.375 6.265l.628 5.057 12.5 7.894c6.875 4.342 12.991 8.116 13.59 8.387s2.961-.731 5.247-2.228l4.157-2.721-.284-16.973-.283-16.973-4.797-1.218c-2.639-.67-6.798-2.628-9.243-4.352-2.445-1.723-4.554-3.133-4.686-3.133s-4.45 4.227-9.595 9.394m76.349 2.061c-3.996 3.995-2.986 9.604 2.229 12.382 3.325 1.77 5.759 1.408 8.67-1.289C573.564 499.72 570.118 491 563 491c-1.948 0-3.998.907-5.545 2.455m-103 9c-5.081 5.08-1.44 13.545 5.825 13.545 4.544 0 7.72-3.42 7.72-8.314 0-7.315-8.268-10.509-13.545-5.231M544 507.232c-8.364 1.338-8.579 1.47-6.386 3.899 1.867 2.069 1.846 2.124-2.078 5.521l-3.965 3.431-1.717-2.277c-.945-1.252-1.924-2.058-2.177-1.791s-1.125 3.748-1.938 7.735c-1.702 8.345-2.099 8.022 7.451 6.05 6.135-1.267 6.73-1.792 4.31-3.8-2.19-1.817-1.899-2.594 2.12-5.66l3.621-2.761 1.904 2.352c1.048 1.294 2.058 2.176 2.246 1.961.875-1.006 3.376-14.46 2.782-14.966-.37-.316-3.148-.178-6.173.306m-37.545 26.223c-5.318 5.317-1.196 13.47 6.84 13.531 3.073.024 6.705-4.509 6.705-8.368 0-6.814-8.612-10.097-13.545-5.163m-54.969 95.795c-.248.688-.347 11.375-.219 23.75l.233 22.5 3.75.31 3.75.311v-3.984c0-2.827.752-4.877 2.589-7.06 1.424-1.692 2.948-3.077 3.387-3.077s3.344 3.15 6.454 7c5.654 6.998 5.658 7 10.712 7h5.055l-2.659-3.25c-5.823-7.117-12.499-16.303-12.518-17.225-.011-.536 3.005-4.024 6.703-7.75l6.723-6.775h-4.998c-4.891 0-5.158.161-12.448 7.5-4.097 4.125-7.799 7.5-8.225 7.5s-.775-6.3-.775-14v-14h-3.531c-1.943 0-3.735.563-3.983 1.25M611 636.485v8.486l-3.25-1.982c-4.146-2.528-10.928-2.545-16.441-.042-11.438 5.193-11.454 25.447-.026 31.335 5.241 2.699 13.021 2.609 16.815-.197 2.878-2.127 2.902-2.128 2.902-.115 0 1.702.647 2.03 4 2.03h4v-48h-8zm44 0v8.486l-3.25-1.982c-4.601-2.805-12.414-2.68-16.852.269-1.869 1.242-4.443 4.28-5.721 6.75-4.409 8.528-1.263 20.825 6.24 24.386 4.412 2.093 14.401 2.122 17.36.049 2.012-1.409 2.223-1.409 2.223 0 0 1.15 1.046 1.557 4 1.557h4v-48h-8zM319 653v23l14.25-.056c8.319-.033 15.668-.554 17.656-1.25 4.71-1.651 7.594-5.851 7.594-11.061 0-3.845-.703-5.435-4.958-11.215-.658-.893-.374-1.946.904-3.358 2.647-2.926 2.647-10.118-.001-13.665-3.13-4.193-7.474-5.234-22.195-5.319L319 630zm173.98-22.5c-.012.275-.031 10.513-.042 22.75l-.022 22.25 14.292.284c20.718.412 25.792-2.092 25.792-12.731 0-3.246-.716-4.84-3.616-8.05-1.989-2.202-3.211-4.003-2.716-4.003s1.726-1.397 2.734-3.104c3.774-6.388.114-14.825-7.328-16.892-3.592-.998-29.056-1.439-29.094-.504M327 643v6h8.845c9.868 0 12.155-1.217 12.155-6.468 0-4.378-2.42-5.464-12.25-5.5L327 637zm174 0v6h8.066c10.022 0 13.879-1.732 13.919-6.25.008-.962-.885-2.65-1.985-3.75-1.704-1.704-3.333-2-11-2h-9zm-126.5-.583c-6.744 3.011-11.432 11.921-9.952 18.917 2.415 11.417 11.561 17.212 23.102 14.637 13.185-2.941 17.868-19.635 8.5-30.304-3.857-4.392-15.257-6.103-21.65-3.25m44.5-.717c-8.443 3.055-12.076 7.978-12.279 16.642-.253 10.812 6.97 17.937 18.272 18.025 10.218.079 17.025-5.635 18.51-15.537 1.119-7.466-3.345-15.529-10.221-18.459-3.166-1.349-11.344-1.733-14.282-.671m122 11.85c0 13.633.814 16.585 5.615 20.362 3.238 2.547 12.373 2.864 16.749.582 3.536-1.844 3.636-1.844 3.636.006 0 1.085 1.114 1.5 4.024 1.5h4.023l-.273-17.25-.274-17.25-3.75-.31-3.75-.311-.051 5.311c-.106 10.906-1.471 18.776-3.631 20.937-3.113 3.112-9.105 2.822-12.034-.583-2.091-2.431-2.284-3.622-2.284-14.1V641h-8zm134.669 4.642c4.081 9.456 7.287 18.103 7.125 19.217-.472 3.249-5.078 5.3-8.772 3.905-2.874-1.084-3.146-.975-4.612 1.86-.857 1.656-1.412 3.134-1.234 3.283 1.824 1.53 5.497 2.543 9.223 2.543 3.607 0 5.227-.611 7.943-2.995 1.876-1.648 3.994-4.46 4.707-6.25s4.593-11.015 8.623-20.5S706 641.783 706 641.505s-1.565-.505-3.477-.505c-4.215 0-4.889.954-10.065 14.25-2.087 5.362-4.095 9.75-4.462 9.75-.366 0-2.823-4.837-5.46-10.75s-5.241-11.312-5.788-12c-.546-.687-2.682-1.25-4.746-1.25h-3.753zm-298.366-8.995c-3.182 1.537-5.597 7.186-4.741 11.085 1.045 4.757 3.215 7.489 6.919 8.712 7.014 2.315 12.504-1.783 13.285-9.915.436-4.533.202-5.265-2.566-8.033-2.375-2.375-3.889-3.031-6.873-2.978-2.105.037-4.816.545-6.024 1.129m40.62 1.726c-6.568 6.568-1.864 19.077 7.174 19.077 5.884 0 10.436-5.463 10.256-12.31-.231-8.816-11.144-13.053-17.43-6.767m176.125-.125c-2.423 2.424-3.048 3.903-3.048 7.221 0 8.385 6.129 13.414 13.418 11.008 4.436-1.464 6.582-4.866 6.582-10.436 0-6.249-3.012-9.613-9.235-10.314-4.213-.475-4.967-.229-7.717 2.521m43.752.248c-2.765 2.765-3.002 3.504-2.569 8.01.542 5.632 2.55 8.387 7.246 9.936 3.725 1.23 7.311.22 10.483-2.952 1.518-1.518 2.04-3.34 2.04-7.117 0-4.278-.46-5.537-2.923-8-4.17-4.17-10.034-4.12-14.277.123M327 662.5v6.5h9.277c11.073 0 13.723-1.255 13.723-6.5s-2.65-6.5-13.723-6.5H327zm174 0v6.5h8.953c4.924 0 10.064-.506 11.423-1.125 4.446-2.026 4.25-8.399-.333-10.852-1.051-.563-5.991-1.023-10.977-1.023H501z"/></svg>